# xmcd
#
# Track frame offsets:
#	150
#	21935
#	52092
#	72258
#	111302
#	132849
#	160971
#	182041
#	199555
#	210111
#	228042
#	249845
#	267888
#	293975
#
# Disc length: 4057 seconds
# Revision: 0
# Processed by: cddbd v1.5.2PL0 Copyright (c) Steve Scherf et al.
# Submitted via: dBpowerAMP V12.0
#
DISCID=c10fd70e
DTITLE=Fernando Jones - Stranded
DYEAR=2007
DGENRE=Blues
TTITLE0=Stranded
TTITLE1=Easy to Hold (Hard to Control)
TTITLE2=Sometimes (I Can't Help Myself)
TTITLE3=I Want a Pretty Woman
TTITLE4=Down to the Bottom
TTITLE5=My Best Friend
TTITLE6=How Come
TTITLE7=Tracey
TTITLE8=On Top
TTITLE9=You Must Be Brothers
TTITLE10=I Want to Spend Xmas With You
TTITLE11=Stranded (remix)
TTITLE12=How Many Times
TTITLE13=DATA
EXTD=
EXTT0=
EXTT1=
EXTT2=
EXTT3=
EXTT4=
EXTT5=
EXTT6=
EXTT7=
EXTT8=
EXTT9=
EXTT10=
EXTT11=
EXTT12=
EXTT13=
PLAYORDER=
